<?xml version="1.0" encoding="utf-8"?>
<!-- Generator: Adobe Illustrator 23.0.2, SVG Export Plug-In . SVG Version: 6.00 Build 0)  -->
<svg version="1.1" id="Ebene_1" xmlns="http://www.w3.org/2000/svg" xmlns:xlink="http://www.w3.org/1999/xlink" x="0px" y="0px"
	 viewBox="0 0 53 53" style="enable-background:new 0 0 53 53;" xml:space="preserve">
<style type="text/css">
	.st0{fill:#161615;}
</style>
<title>Plugsurfing_Logo_circle-06</title>
<path class="st0" d="M26.5,3.5c-12.7,0-23,10.3-23,23s10.3,23,23,23s23-10.3,23-23l0,0C49.5,13.8,39.2,3.5,26.5,3.5 M26.5,51.9
	c-14,0-25.4-11.4-25.4-25.4c0-14,11.4-25.4,25.4-25.4c14,0,25.4,11.4,25.4,25.4C51.9,40.5,40.5,51.9,26.5,51.9 M31.6,13.3L20.4,27.7
	l6.8-0.9l-5.9,12.9l11.2-15.3l-6.8,0.9L31.6,13.3"/>
</svg>
